<?xml version="1.0" encoding="UTF-8"?>
<svg version="1.1" xmlns="http://www.w3.org/2000/svg" width="1024" height="1024">
<path d="M0 0 C0.87229248 0.62189209 0.87229248 0.62189209 1.76220703 1.25634766 C12.81332356 9.15731314 23.38429827 17.49142504 33.41796875 26.6640625 C34.85247002 27.96184125 36.29362359 29.25272486 37.75976562 30.51464844 C43.11339194 35.12279954 48.14386687 39.99366721 53.125 45 C54.28322266 46.15242188 54.28322266 46.15242188 55.46484375 47.328125 C68 59.88463586 68 59.88463586 68 63 C68.66 63 69.32 63 70 63 C72.43474502 65.94574089 74.7253273 68.96309959 77.01171875 72.0234375 C78.29933832 73.71494847 79.64566322 75.3614197 81 77 C81.66 77 82.32 77 83 77 C83.33 77.33 83.66 77.66 84 78 C84.33773438 77.4946875 84.67546875 76.989375 85.0234375 76.46875 C85.46945312 75.8190625 85.91546875 75.169375 86.375 74.5 C87.03628906 73.52546875 87.03628906 73.52546875 87.7109375 72.53125 C88.13632812 72.0259375 88.56171875 71.520625 89 71 C89.66 71 90.32 71 91 71 C91.22945312 70.46246094 91.45890625 69.92492187 91.6953125 69.37109375 C93.39411651 66.28374634 95.58745582 63.72064072 97.875 61.0625 C98.35533691 60.49909912 98.83567383 59.93569824 99.33056641 59.35522461 C103.39085557 54.62870214 107.5861335 50.03264744 111.85107422 45.49047852 C114.24604358 42.93477571 116.53691818 40.35614692 118.7265625 37.62109375 C119.47679687 36.75613281 120.22703125 35.89117187 121 35 C121.66 35 122.32 35 123 35 C123 34.34 123 33.68 123 33 C123.66 33 124.32 33 125 33 C125 32.34 125 31.68 125 31 C126.29296875 29.6953125 126.29296875 29.6953125 128.1875 28.125 C131.41542786 25.39236266 134.53032594 22.58007727 137.6027832 19.67651367 C144.05760103 13.59672009 150.76561315 8.14591626 158 3 C159.47146484 1.92685547 159.47146484 1.92685547 160.97265625 0.83203125 C195.71148187 -23.98141562 234.75616345 -38.67432632 277 -44 C277.82016602 -44.1038501 278.64033203 -44.2077002 279.48535156 -44.31469727 C320.6947592 -48.99222606 362.88701715 -41.11379183 400 -23 C400.68449219 -22.67064453 401.36898437 -22.34128906 402.07421875 -22.00195312 C410.09611134 -18.13928581 417.74226855 -14.19129402 425 -9 C425.969375 -8.34515625 426.93875 -7.6903125 427.9375 -7.015625 C436.25965191 -1.37416626 444.17936776 4.68447057 452 11 C453.11955078 11.90105469 453.11955078 11.90105469 454.26171875 12.8203125 C458.01199961 15.9279205 460.95510832 19.23394977 464 23 C464.7425 23.7425 465.485 24.485 466.25 25.25 C476.94657644 35.94657644 486.14889751 47.68439315 494.1328125 60.50683594 C495.62556313 62.90214783 496.99590465 64.99590465 499 67 C499.9162367 68.68657584 500.78359013 70.39987473 501.625 72.125 C502.15609375 73.20910156 502.6871875 74.29320312 503.234375 75.41015625 C503.51990234 75.9942627 503.80542969 76.57836914 504.09960938 77.18017578 C505.01203925 79.02433313 505.947693 80.85486259 506.890625 82.68359375 C523.09470766 114.23382479 532.41654752 146.88250158 537 182 C537.08776199 182.6716922 537.17552399 183.3433844 537.26594543 184.03543091 C537.93311711 189.50590347 538.16042601 194.89032523 538.16796875 200.3984375 C538.17129715 201.27287506 538.17462555 202.14731262 538.17805481 203.04824829 C538.18308763 204.89202352 538.18546427 206.73580775 538.18530273 208.57958984 C538.18746712 211.33317046 538.20560093 214.08633492 538.22460938 216.83984375 C538.27690056 232.91063669 536.9768557 248.65229758 533.875 264.4375 C533.66327148 265.51894287 533.45154297 266.60038574 533.23339844 267.71459961 C525.0165122 307.98138707 509.43334207 346.44611779 489 382 C488.51128418 382.86544434 488.02256836 383.73088867 487.51904297 384.62255859 C473.34849737 409.69352388 456.66130067 433.28238738 439 456 C438.5575293 456.57153809 438.11505859 457.14307617 437.65917969 457.73193359 C432.24378722 464.72274846 426.72618758 471.60021497 420.97802734 478.32080078 C418.15196902 481.625409 415.40237607 484.97764122 412.6875 488.375 C407.8175845 494.36806718 402.52397106 499.93899081 397.23046875 505.5546875 C394.2928951 508.6743387 391.44310489 511.85663408 388.64453125 515.1015625 C386.57914174 517.48583637 384.47988072 519.83802594 382.375 522.1875 C381.66085937 522.98542969 380.94671875 523.78335938 380.2109375 524.60546875 C377.86934693 527.14150236 375.45471994 529.57293888 373 532 C370.08057042 534.89306007 367.16486362 537.78984046 364.25 540.6875 C363.47011719 541.45900391 362.69023438 542.23050781 361.88671875 543.02539062 C361.14550781 543.76337891 360.40429688 544.50136719 359.640625 545.26171875 C358.96547852 545.93162842 358.29033203 546.60153809 357.59472656 547.29174805 C355.91986953 548.92404963 355.91986953 548.92404963 355 551 C354.34 551 353.68 551 353 551 C353 551.66 353 552.32 353 553 C351.6206529 554.18688006 350.23715997 555.3710978 348.80078125 556.48828125 C344.66148321 559.96313665 340.9959978 564.01394798 337.20703125 567.86328125 C335.40898809 569.67982007 333.6108072 571.49622257 331.8125 573.3125 C330.89791016 574.24384766 329.98332031 575.17519531 329.04101562 576.13476562 C328.16767578 577.01455078 327.29433594 577.89433594 326.39453125 578.80078125 C325.20114136 580.00988159 325.20114136 580.00988159 323.98364258 581.2434082 C322 583 322 583 320 583 C320 583.66 320 584.32 320 585 C318.49609375 586.48046875 318.49609375 586.48046875 316.4375 588.1875 C313.6746132 590.53279758 311.03320243 592.90829405 308.5 595.5 C305.57613012 598.46976021 302.51418446 601.20506379 299.359375 603.92578125 C296.40134778 606.52629856 293.51330288 609.19754658 290.625 611.875 C275.8837917 625.51611812 275.8837917 625.51611812 268.625 631.375 C264.61173716 634.61952517 260.77584616 637.98747183 257 641.5 C252.47008675 645.71023142 247.79707836 649.67637846 242.98046875 653.5546875 C239.42709326 656.47003882 235.9627909 659.4781491 232.5 662.5 C227.31740268 667.01812846 222.0752494 671.43927375 216.73046875 675.765625 C213.68033192 678.26158819 210.68421595 680.8154731 207.6875 683.375 C202.63783247 687.67946221 197.47003269 691.80348046 192.23120117 695.87451172 C188.23788006 698.99106126 184.34724342 702.20528622 180.5 705.5 C175.60434148 709.69003805 170.60133535 713.70768627 165.51391602 717.66186523 C160.75027346 721.37754573 156.08725131 725.20562086 151.4375 729.0625 C145.48647331 733.9943561 139.45571353 738.76971014 133.30078125 743.4453125 C129.5037564 746.35509575 125.82121786 749.40151108 122.125 752.4375 C116.81221703 756.78041802 111.44382853 761.02950383 105.9375 765.125 C105.04538818 765.79873657 105.04538818 765.79873657 104.13525391 766.48608398 C97.05660895 771.68087992 90.8453778 773.8391416 82 773 C79.25577815 772.48130217 76.68342388 771.79508856 74 771 C74 770.34 74 769.68 74 769 C73.31035156 768.77441406 72.62070312 768.54882812 71.91015625 768.31640625 C68.31445468 766.68989427 65.4702406 764.41392159 62.4375 761.9375 C61.19626299 760.94152262 59.95405828 759.94675017 58.7109375 758.953125 C58.09057617 758.45619141 57.47021484 757.95925781 56.83105469 757.44726562 C54.11682682 755.30193992 51.34285553 753.24650384 48.5625 751.1875 C44.21261553 747.94983499 40.05731582 744.5962572 36 741 C35.34 741.33 34.68 741.66 34 742 C33.67 741.01 33.34 740.02 33 739 C30.97299949 737.24306837 28.9489734 735.61316256 26.8125 734 C25.52720337 733.010599 24.24205105 732.02101051 22.95703125 731.03125 C22.29783691 730.52722656 21.63864258 730.02320313 20.95947266 729.50390625 C17.95209778 727.19572917 14.97674031 724.84745918 12 722.5 C10.8309389 721.58046246 9.66166744 720.6611923 8.4921875 719.7421875 C7.91436523 719.28811523 7.33654297 718.83404297 6.74121094 718.36621094 C5.01940456 717.01522545 3.29520145 715.66735926 1.5703125 714.3203125 C-5.36067676 708.90153908 -12.22016454 703.40383825 -19.03417969 697.83862305 C-23.35576799 694.31545288 -27.72233836 690.85855412 -32.125 687.4375 C-37.56259184 683.20474126 -42.81306779 678.7870413 -48.02294922 674.27807617 C-53.65229843 669.41188018 -59.45144107 664.78000471 -65.30859375 660.19140625 C-71.15211597 655.57607918 -76.78500291 650.75199165 -82.39233398 645.85546875 C-86.12426375 642.60317662 -89.89677779 639.42153766 -93.75 636.3125 C-98.47441128 632.48663946 -102.9705208 628.45335623 -107.4453125 624.33984375 C-110.24884722 621.7720803 -113.10344875 619.27103125 -115.97265625 616.77734375 C-118.33489173 614.70640513 -120.66795853 612.60487152 -123 610.5 C-125.98062721 607.81016569 -128.97245233 605.13689636 -132 602.5 C-139.9121629 595.59455365 -147.64443286 588.50517281 -155.29516602 581.31225586 C-158.72016819 578.09925328 -162.18567875 574.94423121 -165.69921875 571.828125 C-171.79508791 566.35750293 -177.54666401 560.56308963 -183.3125 554.75 C-184.38062025 553.67684528 -185.44897862 552.6039275 -186.51757812 551.53125 C-188.47583836 549.56492546 -190.43244867 547.59701341 -192.38793945 545.62792969 C-196.012731 541.98111632 -199.64636343 538.34364949 -203.3046875 534.73046875 C-214.42403552 523.70997311 -214.42403552 523.70997311 -219.49609375 517.72265625 C-221.09105998 515.89569493 -222.77017842 514.19940713 -224.5 512.5 C-227.53594925 509.51127663 -230.34508659 506.38293521 -233.125 503.15625 C-235.17359094 500.80037042 -237.27203002 498.4949254 -239.375 496.1875 C-243.32127484 491.81984327 -247.04222166 487.3031753 -250.7421875 482.7265625 C-252.96792156 480.03873833 -255.27182262 477.45152981 -257.625 474.875 C-261.03312444 471.13019776 -264.20321026 467.28542863 -267.26953125 463.2578125 C-269.05529408 460.92785557 -270.89747558 458.65213956 -272.75 456.375 C-278.05715127 449.74614439 -283.04797149 442.89607744 -288 436 C-288.53931152 435.24928223 -289.07862305 434.49856445 -289.63427734 433.72509766 C-307.67860321 408.50683583 -324.2439216 382.31236198 -337.07275391 354.03076172 C-337.90843857 352.20052868 -338.77097298 350.38261276 -339.63671875 348.56640625 C-374.53842451 275.19037918 -382.19292293 187.07232375 -354.98681641 110.13476562 C-350.77911487 98.7029858 -345.71500709 87.74866927 -340 77 C-339.43974121 75.92951416 -339.43974121 75.92951416 -338.86816406 74.83740234 C-329.95311487 57.872086 -319.27217622 42.84907499 -306.45166016 28.61914062 C-305.163621 27.18249823 -303.89842387 25.72544911 -302.63671875 24.265625 C-287.96689367 7.42348578 -270.1744251 -5.718041 -251 -17 C-249.86949219 -17.67546875 -248.73898438 -18.3509375 -247.57421875 -19.046875 C-170.89352632 -62.46742564 -70.15993409 -50.30885704 0 0 Z M-146 17 C-147.68800446 16.99422904 -149.37598629 16.94616092 -151.0625 16.875 C-182.42916544 16.64770532 -214.92197297 30.5251252 -239 50 C-239.7744043 50.61415771 -239.7744043 50.61415771 -240.56445312 51.24072266 C-278.06990061 81.07874422 -301.17310154 127.97740485 -307.0012207 175.17871094 C-307.39800426 178.78130318 -307.71592298 182.38694856 -308 186 C-308.05639648 186.67675781 -308.11279297 187.35351562 -308.17089844 188.05078125 C-308.82642015 196.04116429 -309.22785954 203.98528822 -309 212 C-308.98211426 212.67562988 -308.96422852 213.35125977 -308.94580078 214.04736328 C-307.58288759 260.27698081 -294.4694084 304.18505932 -273 345 C-272.42523926 346.10964111 -272.42523926 346.10964111 -271.83886719 347.24169922 C-258.95153933 372.01194688 -242.73673789 395.44403753 -225 417 C-224.0145589 418.22049416 -223.03028473 419.44193099 -222.046875 420.6640625 C-211.61044029 433.61492207 -200.87499317 446.21285781 -189.52197266 458.36914062 C-186.9024048 461.17612062 -184.29428797 463.99365514 -181.6875 466.8125 C-180.93001465 467.62980591 -180.93001465 467.62980591 -180.15722656 468.46362305 C-177.45873634 471.38430506 -174.82465347 474.34496564 -172.25 477.375 C-169.44817436 480.62349349 -166.36773892 483.32382007 -163.09765625 486.08984375 C-160.73781691 488.23874773 -158.66781327 490.53927358 -156.5625 492.9375 C-152.3956621 497.6613631 -148.03528024 502.18894223 -143 506 C-142.34 506 -141.68 506 -141 506 C-140.74476563 506.57975586 -140.48953125 507.15951172 -140.2265625 507.75683594 C-138.87415223 510.23015312 -137.36267476 511.89602109 -135.375 513.890625 C-134.66859375 514.59960938 -133.9621875 515.30859375 -133.234375 516.0390625 C-132.49703125 516.76867187 -131.7596875 517.49828125 -131 518.25 C-130.26265625 518.99507812 -129.5253125 519.74015625 -128.765625 520.5078125 C-128.05921875 521.21164062 -127.3528125 521.91546875 -126.625 522.640625 C-125.97789062 523.28547852 -125.33078125 523.93033203 -124.6640625 524.59472656 C-123.10833644 526.21506609 -123.10833644 526.21506609 -121 526 C-121 526.66 -121 527.32 -121 528 C-119.48280017 529.53457367 -119.48280017 529.53457367 -117.5 531.125 C-114.53322639 533.64257902 -111.72425751 536.22168976 -109 539 C-105.91416001 542.12754053 -102.718757 545.03382257 -99.38671875 547.89453125 C-96.87992479 550.1059256 -94.4425509 552.3797846 -92.00585938 554.66772461 C-86.40246364 559.92880763 -80.71469267 564.9512871 -74.7109375 569.7578125 C-71.71094039 572.23907812 -68.84869713 574.84888189 -66 577.5 C-61.42421829 581.7521378 -56.71370369 585.76665602 -51.84765625 589.6875 C-48.6937823 592.24867061 -45.59415907 594.86735032 -42.5 597.5 C-36.72489995 602.40590373 -30.87851526 607.21835056 -25 612 C-23.16620121 613.49943092 -21.33287057 614.99943458 -19.5 616.5 C-18.5925 617.2425 -17.685 617.985 -16.75 618.75 C-14 621 -11.25 623.25 -8.5 625.5 C-7.59378906 626.24121094 -6.68757813 626.98242188 -5.75390625 627.74609375 C-3.90662478 629.25798227 -2.06028125 630.77101749 -0.21484375 632.28515625 C1.61546469 633.78595769 3.44745797 635.28470708 5.28125 636.78125 C7.13917599 638.29748846 8.99317376 639.8185498 10.84375 641.34375 C11.7409375 642.0759375 12.638125 642.808125 13.5625 643.5625 C14.36816406 644.22378906 15.17382812 644.88507812 16.00390625 645.56640625 C17.86114973 647.19444708 17.86114973 647.19444708 20 647 C20 647.66 20 648.32 20 649 C21.74349933 650.61072484 21.74349933 650.61072484 24 652.25 C25.24136719 653.18972656 25.24136719 653.18972656 26.5078125 654.1484375 C28.00204161 655.2585701 29.49669203 656.36813645 30.9921875 657.4765625 C36.8143176 661.8008832 42.41219165 666.37773206 48 671 C48.66 670.67 49.32 670.34 50 670 C49.86795166 668.91412598 49.73590332 667.82825195 49.59985352 666.70947266 C48.03910339 653.28066707 47.41550789 639.88002456 46.9375 626.375 C46.82179631 623.16031379 46.70419001 619.94575086 46.58070374 616.73135376 C46.50476591 614.75168966 46.43334369 612.77184603 46.3669281 610.7918396 C46.33341751 609.91226593 46.29990692 609.03269226 46.26538086 608.12646484 C46.2381041 607.3510434 46.21082733 606.57562195 46.182724 605.77670288 C46.18637739 603.97602531 46.18637739 603.97602531 45 603 C45.33 603 45.66 603 46 603 C46.41808732 597.77371694 46.758722 592.54984764 47.03149414 587.31396484 C47.13453586 585.53790624 47.25786451 583.76289496 47.40258789 581.98974609 C48.64125511 571.21292559 48.64125511 571.21292559 44.66113281 561.64306641 C41.89361701 559.11634374 39.14365315 557.03017728 36 555 C1.69497541 528.49838599 -9.7135285 472.9802893 -15.15234375 432.74609375 C-22.97959257 371.71435624 -16.92471925 308.99846973 0 250 C0.39759521 248.576875 0.39759521 248.576875 0.80322266 247.125 C10.80154968 211.41937572 25.56149497 172.488722 45.43359375 141.1484375 C47.29451391 138.25380886 47.29451391 138.25380886 46.50390625 135.94140625 C46.00761719 135.30074219 45.51132812 134.66007812 45 134 C44.08541016 132.59041016 44.08541016 132.59041016 43.15234375 131.15234375 C38.08769922 123.80101668 32.73830451 116.84639089 27 110 C24.71045821 107.17174249 22.42407897 104.34098687 20.140625 101.5078125 C17.88375721 98.86381775 15.46526072 96.44879821 13 94 C12.1646875 92.8553125 12.1646875 92.8553125 11.3125 91.6875 C10.879375 91.130625 10.44625 90.57375 10 90 C9.34 90 8.68 90 8 90 C7.566875 89.0409375 7.566875 89.0409375 7.125 88.0625 C6.17176549 85.84793921 6.17176549 85.84793921 4 85 C3.236875 84.071875 2.47375 83.14375 1.6875 82.1875 C-14.33600343 63.21536155 -36.28321724 48.66179874 -57.97998047 37.08544922 C-59.65634148 36.1846635 -61.31674237 35.25424972 -62.97265625 34.31640625 C-69.78967376 30.61172368 -76.98005814 28.15722515 -84.3125 25.6875 C-85.35164551 25.3373584 -86.39079102 24.9872168 -87.46142578 24.62646484 C-95.55515455 21.93100226 -95.55515455 21.93100226 -104 21 C-104.73452393 20.68756348 -105.46904785 20.37512695 -106.22583008 20.05322266 C-109.01321069 18.99498452 -111.43545992 18.51977935 -114.38671875 18.1484375 C-115.40830078 18.01953125 -116.42988281 17.890625 -117.48242188 17.7578125 C-118.54009766 17.63148438 -119.59777344 17.50515625 -120.6875 17.375 C-121.72583984 17.2409375 -122.76417969 17.106875 -123.83398438 16.96875 C-135.01429439 15.37219774 -135.01429439 15.37219774 -146 17 Z M176.4453125 68.77734375 C174.09848338 70.91048395 171.70965414 72.98632073 169.3125 75.0625 C165.83758627 78.14184562 162.80008945 81.39720927 159.80859375 84.94140625 C157.82397362 87.20035832 155.71777552 89.27867219 153.5625 91.375 C148.94235221 95.94832196 144.96047612 100.85361861 141 106 C140.26394531 106.93070312 139.52789063 107.86140625 138.76953125 108.8203125 C125.31655971 125.98217831 113.62728729 143.96411505 103 163 C102.41186523 164.04994141 101.82373047 165.09988281 101.21777344 166.18164062 C55.68344961 247.89971167 28.85787732 347.40541183 51 462 C51.91095516 465.03567917 52.91235661 468.02345878 54 471 C54.31324219 471.86753906 54.62648438 472.73507812 54.94921875 473.62890625 C55.19285156 474.26699219 55.43648438 474.90507813 55.6875 475.5625 C56.120625 476.696875 56.55375 477.83125 57 479 C59.56031325 476.43968675 59.76166384 474.56110096 60.59375 471.04296875 C61.04802368 469.17777588 61.04802368 469.17777588 61.51147461 467.27490234 C61.75195023 466.27677521 61.75195023 466.27677521 61.99728394 465.25848389 C67.79114859 441.39013915 75.74853147 418.33247001 86 396 C86.39687012 395.12939941 86.79374023 394.25879883 87.20263672 393.36181641 C99.01419404 367.58816435 113.49123092 344.00947485 130 321 C130.67192383 320.06269043 130.67192383 320.06269043 131.35742188 319.10644531 C136.49059443 311.98981488 142.04719079 305.4389733 148 299 C149.3609806 297.50617967 150.71573176 296.00664616 152.0625 294.5 C152.63097656 293.8709375 153.19945312 293.241875 153.78515625 292.59375 C155.20207313 291.06889537 155.20207313 291.06889537 155 289 C155.66 289 156.32 289 157 289 C158.4323278 287.58352329 158.4323278 287.58352329 159.9375 285.6875 C166.95240597 277.44498548 174.76185097 270.00242667 183 263 C184.02702823 262.0987793 185.05297627 261.19632683 186.078125 260.29296875 C223.69648746 227.3176516 269.5469319 204.0614749 317.1875 189.4375 C317.91775391 189.20353516 318.64800781 188.96957031 319.40039062 188.72851562 C324.44553549 187.19575682 328.72845328 186.76716838 334 187 C337.33310914 194.27804928 337.75511186 201.2555688 338.1875 209.1875 C338.26715283 210.5438698 338.3469066 211.90023367 338.42675781 213.2565918 C339.36740263 229.85841519 339.08919054 246.2198056 338.125 262.8125 C338.08588501 263.49897614 338.04677002 264.18545227 338.00646973 264.89273071 C337.48596085 273.81614126 336.62212549 282.6278296 335.39794922 291.4831543 C335.03447578 294.69532294 334.92614085 297.77161044 335 301 C334.67 301 334.34 301 334 301 C333.87995605 301.61182129 333.75991211 302.22364258 333.63623047 302.85400391 C320.66642752 368.38628204 293.08816722 426.69602431 249 477 C248.15824219 477.96679688 247.31648437 478.93359375 246.44921875 479.9296875 C242.52831183 484.37118542 238.63167062 488.31571655 234 492 C232.32479379 493.65808315 230.65946734 495.32616497 229 497 C200.12941198 525.434955 163.18735792 549.16246576 124.65600586 562.01074219 C120.57356285 563.37909149 116.82912752 565.04123323 113 567 C111.91234209 583.26779459 111.84419126 599.52036657 111.86962891 615.81591797 C111.87530445 619.49742346 111.87195961 623.17885624 111.86617661 626.86035919 C111.84361464 643.92915646 112.08172593 660.9506179 113 678 C117.88559857 678 119.4575146 676.28231769 122.875 673.1875 C124.03839816 672.16702463 125.20382911 671.14886295 126.37109375 670.1328125 C126.97034668 669.60977539 127.56959961 669.08673828 128.18701172 668.54785156 C131.02868484 666.12175305 133.97975845 663.84441239 136.9375 661.5625 C143.58987231 656.39929798 150.00328459 650.98128005 156.33544922 645.43115234 C157.52807379 644.4057541 158.74057932 643.40330466 159.96533203 642.41650391 C160.60712402 641.89362793 161.24891602 641.37075195 161.91015625 640.83203125 C162.79586304 640.12590698 162.79586304 640.12590698 163.69946289 639.40551758 C165.33958196 637.95215819 165.33958196 637.95215819 165 635 C165.66 635.66 166.32 636.32 167 637 C167.59425781 636.45472656 168.18851563 635.90945313 168.80078125 635.34765625 C173.23337296 631.31489396 177.70632605 627.38304468 182.375 623.625 C186.38824111 620.3804924 190.22435954 617.0127332 194 613.5 C198.62103557 609.20073867 203.39555708 605.16761448 208.31640625 601.2109375 C211.99401916 598.18105554 215.50067359 594.97857922 219.00390625 591.75 C221 590 221 590 223 589 C223 588.34 223 587.68 223 587 C223.84304688 586.63455078 223.84304688 586.63455078 224.703125 586.26171875 C227.44019785 584.75819064 229.45795941 582.93300252 231.75 580.8125 C232.62785156 580.008125 233.50570312 579.20375 234.41015625 578.375 C235.26480469 577.59125 236.11945313 576.8075 237 576 C238.39119917 574.76559072 239.7866045 573.53589412 241.1875 572.3125 C242.13689453 571.48105469 242.13689453 571.48105469 243.10546875 570.6328125 C244.40875022 569.50957198 245.72469857 568.40091585 247.05078125 567.3046875 C248.01564453 566.50417969 248.01564453 566.50417969 249 565.6875 C249.5775 565.21699219 250.155 564.74648438 250.75 564.26171875 C252.23460001 563.05921273 252.23460001 563.05921273 252 561 C252.56074219 560.75636719 253.12148438 560.51273438 253.69921875 560.26171875 C260.44146143 556.56435986 265.93913364 550.12976106 271.296875 544.671875 C273.09462245 542.90711374 274.9635162 541.26556483 276.875 539.625 C280.74822029 536.29222906 284.31170737 532.70634476 287.8984375 529.0703125 C289.62948156 527.36500887 291.36902126 525.78372112 293.25 524.25 C296.03067592 521.97490152 298.4719311 519.55283402 301 517 C302.04473574 515.96334433 303.0907849 514.92801113 304.13793945 513.89379883 C307.20999316 510.85714527 310.27609602 507.8145621 313.34008789 504.76977539 C314.66222634 503.45778332 315.98614091 502.14757883 317.31176758 500.83911133 C319.22944426 498.94556231 321.14070408 497.04574188 323.05078125 495.14453125 C323.94595207 494.26484428 323.94595207 494.26484428 324.85920715 493.36738586 C326.27793655 491.94905011 327.64458583 490.47895971 329 489 C329 488.34 329 487.68 329 487 C329.556875 486.77957031 330.11375 486.55914063 330.6875 486.33203125 C333.74774275 484.56929007 335.65225185 482.325223 338 479.6875 C338.97353089 478.60248091 339.94750527 477.51785961 340.921875 476.43359375 C341.42525391 475.8701123 341.92863281 475.30663086 342.44726562 474.72607422 C345.01582811 471.8707697 347.6362914 469.06390755 350.25 466.25 C354.58054543 461.566358 358.83316479 456.82955254 363 452 C363.99828155 450.85510557 364.99702568 449.7106144 365.99609375 448.56640625 C372.46388292 441.14847663 378.82955971 433.66880724 385 426 C385.66386719 425.18273437 386.32773437 424.36546875 387.01171875 423.5234375 C390.69735067 418.9616534 394.31560981 414.34843534 397.875 409.6875 C398.61492187 408.72199219 399.35484375 407.75648438 400.1171875 406.76171875 C401.85658143 404.21036707 402.99420532 401.90621727 404 399 C404.66 399 405.32 399 406 399 C407.59049522 396.84365551 409.05630469 394.68992947 410.5 392.4375 C411.4084253 391.04268934 412.31729098 389.64816541 413.2265625 388.25390625 C413.6896582 387.53992676 414.15275391 386.82594727 414.62988281 386.09033203 C415.88387566 384.17716618 417.16319894 382.28600549 418.4609375 380.40234375 C425.62776832 369.96954177 431.90330183 359.08644344 438 348 C438.53560547 347.03271973 439.07121094 346.06543945 439.62304688 345.06884766 C456.4091975 314.54539837 468.58638868 281.50255282 474 247 C474.11569336 246.2668457 474.23138672 245.53369141 474.35058594 244.77832031 C480.29046775 204.92647233 474.53964673 162.61837476 457.8762207 125.94482422 C456.84551448 123.65711016 455.90572795 121.3397972 455 119 C454.34 119 453.68 119 453 119 C452 116 452 116 452 113 C443.76616285 95.63734341 431.51167316 79.55350497 418 66 C416.90558594 64.83984375 416.90558594 64.83984375 415.7890625 63.65625 C414.16172893 61.77355196 414.16172893 61.77355196 412 62 C411.7525 61.38125 411.505 60.7625 411.25 60.125 C409.79371361 57.64931313 408.62187494 57.04874998 406 56 C406 55.34 406 54.68 406 54 C403.80773371 52.19888496 401.61509452 50.52509045 399.3125 48.875 C398.63203613 48.38362549 397.95157227 47.89225098 397.25048828 47.38598633 C327.28079711 -2.61213719 237.96559646 12.56053255 176.4453125 68.77734375 Z M238 326 C221.80149472 334.54466609 208.23225992 344.34441628 195 357 C194.0615625 357.88558594 193.123125 358.77117187 192.15625 359.68359375 C185.34279873 366.27694758 179.53189962 373.33784305 174 381 C173.56187988 381.5990918 173.12375977 382.19818359 172.67236328 382.81542969 C156.64498896 404.85090508 145.11067604 429.22506983 137 455.1875 C136.62601074 456.38044678 136.25202148 457.57339355 135.86669922 458.80249023 C131.26364115 471.40206936 131.26364115 471.40206936 132 484 C146.4171968 475.17372401 161.00759944 465.0135215 171.62109375 451.6328125 C173 450 173 450 175.3515625 447.65234375 C188.21927101 434.76565632 200.16642195 419.12944411 207.76953125 402.54296875 C209.42719157 399.11713741 211.52356821 396.08536086 213.68359375 392.9609375 C215.83981836 389.74899461 217.46334352 386.37928001 218.86328125 382.78125 C219.69817512 380.73848562 220.60806284 378.72596358 221.55859375 376.734375 C226.53465398 366.28129085 230.38156928 355.5223437 234.0625 344.5625 C234.31587128 343.81746216 234.56924255 343.07242432 234.83029175 342.30480957 C235.55493048 340.16617629 236.26613021 338.0235825 236.97265625 335.87890625 C237.38781494 334.6266626 237.80297363 333.37441895 238.23071289 332.08422852 C239.29508458 328.99122097 239.29508458 328.99122097 238 326 Z " fill="#C8C3FE" transform="translate(440,185)"/>
<path d="M0 0 C7.32578537 9.62817505 5.66299147 27.33025352 6 39 C6.03504639 40.19544434 6.03504639 40.19544434 6.07080078 41.41503906 C6.36019947 53.23904253 5.81939021 65.01219282 5.125 76.8125 C5.08579437 77.49806976 5.04658875 78.18363953 5.00619507 78.88998413 C4.487674 87.78293361 3.62900074 96.5618317 2.39794922 105.38549805 C1.92133182 109.00944154 1.92133182 109.00944154 2.06689453 112.71411133 C2.00026982 115.9867462 1.58245656 117.24952255 0 120 C-0.40991411 121.54869615 -0.76577765 123.11231132 -1.078125 124.68359375 C-1.26616699 125.60035889 -1.45420898 126.51712402 -1.64794922 127.46166992 C-1.94596436 128.93470581 -1.94596436 128.93470581 -2.25 130.4375 C-14.9210887 190.584893 -43.5392096 244.96484889 -84 291 C-84.48629883 291.55623047 -84.97259766 292.11246094 -85.47363281 292.68554688 C-86.8501937 294.25529291 -88.2353855 295.81680764 -89.625 297.375 C-90.42164063 298.26960938 -91.21828125 299.16421875 -92.0390625 300.0859375 C-94 302 -94 302 -96 302 C-96.33 302.99 -96.66 303.98 -97 305 C-98.35546875 306.3671875 -98.35546875 306.3671875 -100.1875 307.875 C-102.84965052 310.1192821 -105.44124248 312.39830403 -107.94140625 314.8203125 C-122.48030666 328.85004281 -139.17523851 341.59999489 -156.78515625 351.578125 C-159.26236247 352.95965083 -159.26236247 352.95965083 -161 356 C-161.99 356 -162.98 356 -164 356 C-166.40049678 357.28184748 -168.72676227 358.60902975 -171.0625 360 C-183.9189836 367.42371063 -197.38070371 373.01953379 -211.42578125 377.7734375 C-214.3287717 378.76965499 -217.15771805 379.8472375 -220 381 C-221.08765791 397.26779459 -221.15580874 413.52036657 -221.13037109 429.81591797 C-221.12469553 433.4974336 -221.12805076 437.1788766 -221.13380814 440.86038971 C-221.15203229 454.57503279 -221.10074477 468.27814132 -220.5546875 481.984375 C-220.51594513 482.98253235 -220.47720276 483.9806897 -220.43728638 485.00909424 C-220.3764055 489.66204272 -220.3764055 489.66204272 -219 494 C-222.54850309 497.69360916 -226.28176909 500.91495109 -230.375 504 C-231.23653687 504.65137939 -231.23653687 504.65137939 -232.11547852 505.31591797 C-233.74333861 506.54436117 -235.37165497 507.77219967 -237 509 C-237.72316406 509.58007812 -238.44632813 510.16015625 -239.19140625 510.7578125 C-241.63717371 512.67284295 -243.58887117 513.92091354 -246.66015625 514.51171875 C-251.69227684 513.74071548 -254.65016127 510.88066212 -258.5 507.6875 C-260.09490708 506.4008619 -261.68996101 505.11440582 -263.28515625 503.828125 C-264.0755127 503.18294922 -264.86586914 502.53777344 -265.68017578 501.87304688 C-267.82221704 500.14354356 -269.99020123 498.46050076 -272.18359375 496.796875 C-272.82039063 496.31130127 -273.4571875 495.82572754 -274.11328125 495.32543945 C-275.29572436 494.42578888 -276.48172467 493.53078705 -277.671875 492.64135742 C-282.37935248 489.00838172 -284.86329366 485.88688183 -285.6953125 479.98828125 C-285.85274677 478.43105823 -285.99515118 476.87226548 -286.125 475.3125 C-286.24174072 474.04575439 -286.24174072 474.04575439 -286.36083984 472.75341797 C-286.59078447 470.17003587 -286.7987344 467.58575981 -287 465 C-287.08894531 463.92226318 -287.08894531 463.92226318 -287.1796875 462.82275391 C-288.37097487 447.9139343 -288.09978823 432.94367079 -288 418 C-288.66 418 -289.32 418 -290 418 C-289.67 417.01 -289.34 416.02 -289 415 C-288.83440255 412.29469331 -288.71863621 409.61026539 -288.6484375 406.90234375 C-288.62528473 406.11227432 -288.60213196 405.3222049 -288.57827759 404.50819397 C-288.53070061 402.83975458 -288.48545906 401.1712472 -288.44238281 399.50268555 C-288.37515979 396.94358286 -288.29742853 394.38494504 -288.21875 391.82617188 C-288.17384468 390.20574663 -288.12955291 388.58530423 -288.0859375 386.96484375 C-288.05009048 385.81326027 -288.05009048 385.81326027 -288.01351929 384.63841248 C-287.82714126 380.69228802 -287.82714126 380.69228802 -289 377 C-288.34 377 -287.68 377 -287 377 C-286.85751831 375.34291016 -286.85751831 375.34291016 -286.7121582 373.65234375 C-284.75175482 351.07438772 -282.46912636 328.66966458 -278.58056641 306.33544922 C-278.05957059 303.34224278 -277.5639683 300.34608981 -277.07421875 297.34765625 C-267.06216194 238.34208281 -239.6343398 183.19675884 -205 135 C-204.55495117 134.37947754 -204.10990234 133.75895508 -203.65136719 133.11962891 C-199.16595243 126.90064257 -194.41764856 121.09565178 -189.2109375 115.46875 C-186.16384063 112.06633795 -183.39510492 108.4683196 -180.62890625 104.8359375 C-180.09136719 104.23007812 -179.55382812 103.62421875 -179 103 C-178.34 103 -177.68 103 -177 103 C-176.74041504 102.41516846 -176.48083008 101.83033691 -176.21337891 101.2277832 C-174.91356092 98.84129646 -173.51043278 97.26697789 -171.5859375 95.35546875 C-170.90660156 94.67806641 -170.22726562 94.00066406 -169.52734375 93.30273438 C-168.81707031 92.60470703 -168.10679687 91.90667969 -167.375 91.1875 C-166.68792969 90.50107422 -166.00085938 89.81464844 -165.29296875 89.10742188 C-160.68784067 84.54117387 -155.91604683 80.22706502 -151 76 C-149.89362525 75.02707097 -148.78811223 74.05316085 -147.68359375 73.078125 C-116.05897829 45.40839511 -77.82351581 23.61942755 -38.24829102 9.71386719 C-37.30783936 9.38161133 -36.3673877 9.04935547 -35.3984375 8.70703125 C-34.57005371 8.4231958 -33.74166992 8.13936035 -32.88818359 7.84692383 C-30.81420704 7.15597096 -30.81420704 7.15597096 -30 5 C-27.9348064 4.79348064 -25.86889968 4.59278578 -23.80078125 4.41796875 C-20.52641148 3.92932501 -17.57846213 2.979612 -14.4375 1.9375 C-9.32918131 0.31239745 -5.32743111 -0.88790519 0 0 Z M-96 140 C-112.19850528 148.54466609 -125.76774008 158.34441628 -139 171 C-139.9384375 171.88558594 -140.876875 172.77117187 -141.84375 173.68359375 C-148.65720127 180.27694758 -154.46810038 187.33784305 -160 195 C-160.43812012 195.5990918 -160.87624023 196.19818359 -161.32763672 196.81542969 C-177.35501104 218.85090508 -188.88932396 243.22506983 -197 269.1875 C-197.37398926 270.38044678 -197.74797852 271.57339355 -198.13330078 272.80249023 C-202.73635885 285.40206936 -202.73635885 285.40206936 -202 298 C-187.5828032 289.17372401 -172.99240056 279.0135215 -162.37890625 265.6328125 C-161 264 -161 264 -158.6484375 261.65234375 C-145.78072899 248.76565632 -133.83357805 233.12944411 -126.23046875 216.54296875 C-124.57280843 213.11713741 -122.47643179 210.08536086 -120.31640625 206.9609375 C-118.16018164 203.74899461 -116.53665648 200.37928001 -115.13671875 196.78125 C-114.30182488 194.73848562 -113.39193716 192.72596358 -112.44140625 190.734375 C-107.46534602 180.28129085 -103.61843072 169.5223437 -99.9375 158.5625 C-99.68412872 157.81746216 -99.43075745 157.07242432 -99.16970825 156.30480957 C-98.44506952 154.16617629 -97.73386979 152.0235825 -97.02734375 149.87890625 C-96.61218506 148.6266626 -96.19702637 147.37441895 -95.76928711 146.08422852 C-94.70491542 142.99122097 -94.70491542 142.99122097 -96 140 Z " fill="#CCEFE9" transform="translate(774,371)"/>
<path d="M0 0 C0.66 0.33 1.32 0.66 2 1 C2.1598655 10.37877608 1.66433182 19.65190221 1 29 C0.67 29 0.34 29 0 29 C-1.38297872 9.65957447 -1.38297872 9.65957447 0 0 Z " fill="#D5F3EE" transform="translate(551,835)"/>
<path d="M0 0 C0 3 0 3 -2.3125 5.5625 C-5 8 -5 8 -8 10 C-8.99 9.67 -9.98 9.34 -11 9 C-7.37 6.03 -3.74 3.06 0 0 Z " fill="#CBCDFA" transform="translate(567,854)"/>
<path d="M0 0 C0.66 0 1.32 0 2 0 C1.71758359 1.46015291 1.42373386 2.91809793 1.125 4.375 C0.96257813 5.18710937 0.80015625 5.99921875 0.6328125 6.8359375 C0 9 0 9 -2 11 C-1.85892253 9.54119891 -1.71197585 8.08296449 -1.5625 6.625 C-1.48128906 5.81289063 -1.40007813 5.00078125 -1.31640625 4.1640625 C-1 2 -1 2 0 0 Z " fill="#D3F4EF" transform="translate(514,608)"/>
<path d="M0 0 C0.33 0 0.66 0 1 0 C1.125 6.625 1.125 6.625 0 10 C-0.66 10 -1.32 10 -2 10 C-2.33 10.66 -2.66 11.32 -3 12 C-2.40075776 7.80530429 -1.42500059 3.99000166 0 0 Z " fill="#D0CAFC" transform="translate(962,484)"/>
<path d="M0 0 C0.66 0.33 1.32 0.66 2 1 C2 1.66 2 2.32 2 3 C1.01 2.67 0.02 2.34 -1 2 C-0.67 1.34 -0.34 0.68 0 0 Z " fill="#C9CBFA" transform="translate(641,787)"/>
<path d="M0 0 C1.32 0.33 2.64 0.66 4 1 C3.01 1.33 2.02 1.66 1 2 C0.67 1.34 0.34 0.68 0 0 Z " fill="#C4C0F9" transform="translate(753,203)"/>
<path d="M0 0 C1 4 1 4 1 4 Z " fill="#CEE9ED" transform="translate(484,763)"/>
<path d="M0 0 C1 4 1 4 1 4 Z " fill="#C7C3FA" transform="translate(912,428)"/>
<path d="M0 0 C1 4 1 4 1 4 Z " fill="#C5C0FC" transform="translate(914,396)"/>
<path d="M0 0 C4 1 4 1 4 1 Z " fill="#C0BBF3" transform="translate(741,138)"/>
<path d="" fill="#CEEBEC" transform="translate(0,0)"/>
<path d="M0 0 C3 1 3 1 3 1 Z " fill="#CFEEE9" transform="translate(556,751)"/>
<path d="M0 0 C0.66 0.66 1.32 1.32 2 2 C1.34 2 0.68 2 0 2 C0 1.34 0 0.68 0 0 Z " fill="#C5C2F9" transform="translate(297,688)"/>
<path d="M0 0 C0.33 0.66 0.66 1.32 1 2 C0.34 1.67 -0.32 1.34 -1 1 C-0.67 0.67 -0.34 0.34 0 0 Z " fill="#BDB9F2" transform="translate(844,684)"/>
<path d="" fill="#C9CCF8" transform="translate(0,0)"/>
<path d="M0 0 C0.66 0.66 1.32 1.32 2 2 C1.34 2 0.68 2 0 2 C0 1.34 0 0.68 0 0 Z " fill="#CACCFB" transform="translate(484,595)"/>
<path d="M0 0 C0.66 0.66 1.32 1.32 2 2 C1.34 2 0.68 2 0 2 C0 1.34 0 0.68 0 0 Z " fill="#C2BCF6" transform="translate(74,459)"/>
<path d="" fill="#C6C1FB" transform="translate(0,0)"/>
<path d="" fill="#C4BEF6" transform="translate(0,0)"/>
<path d="M0 0 C3 1 3 1 3 1 Z " fill="#C3BFF8" transform="translate(779,207)"/>
<path d="M0 0 C3 1 3 1 3 1 Z " fill="#C4BEF8" transform="translate(761,204)"/>
<path d="M0 0 C3 1 3 1 3 1 Z " fill="#C4BDF9" transform="translate(276,204)"/>
<path d="M0 0 C3 1 3 1 3 1 Z " fill="#BFBBF5" transform="translate(589,192)"/>
<path d="M0 0 C2 1 2 1 2 1 Z " fill="#BBB8EC" transform="translate(525,959)"/>
<path d="M0 0 C2 1 2 1 2 1 Z " fill="#B9B8F1" transform="translate(520,959)"/>
<path d="M0 0 C2 1 2 1 2 1 Z " fill="#BEBBF6" transform="translate(586,918)"/>
<path d="M0 0 C2 1 2 1 2 1 Z " fill="#BFB9F4" transform="translate(413,879)"/>
<path d="" fill="#BFBBF5" transform="translate(0,0)"/>
<path d="" fill="#CDE0F1" transform="translate(0,0)"/>
<path d="" fill="#BEB9F2" transform="translate(0,0)"/>
<path d="" fill="#CEEBEC" transform="translate(0,0)"/>
<path d="M0 0 C2 1 2 1 2 1 Z " fill="#CADDF3" transform="translate(483,749)"/>
<path d="M0 0 C2 1 2 1 2 1 Z " fill="#CFD9F8" transform="translate(480,747)"/>
<path d="" fill="#CCECEA" transform="translate(0,0)"/>
<path d="M0 0 C2 1 2 1 2 1 Z " fill="#CDEEEB" transform="translate(588,739)"/>
<path d="" fill="#C8CBFA" transform="translate(0,0)"/>
<path d="M0 0 C2 1 2 1 2 1 Z " fill="#BFB9F4" transform="translate(197,679)"/>
<path d="M0 0 C2 1 2 1 2 1 Z " fill="#CCECE6" transform="translate(575,664)"/>
<path d="" fill="#CBD3F6" transform="translate(0,0)"/>
<path d="" fill="#C8C8FA" transform="translate(0,0)"/>
<path d="" fill="#C7C4FA" transform="translate(0,0)"/>
<path d="" fill="#C4BFF7" transform="translate(0,0)"/>
<path d="" fill="#C0B9F2" transform="translate(0,0)"/>
<path d="M0 0 C2 1 2 1 2 1 Z " fill="#D0F0EA" transform="translate(640,595)"/>
<path d="" fill="#CDEEE9" transform="translate(0,0)"/>
<path d="" fill="#CACCF8" transform="translate(0,0)"/>
<path d="" fill="#C1C0F6" transform="translate(0,0)"/>
<path d="" fill="#C1B9F5" transform="translate(0,0)"/>
<path d="" fill="#C9C9F9" transform="translate(0,0)"/>
<path d="" fill="#C2BCF6" transform="translate(0,0)"/>
<path d="" fill="#C8C9F9" transform="translate(0,0)"/>
<path d="" fill="#C2BEF4" transform="translate(0,0)"/>
<path d="" fill="#C2BEF4" transform="translate(0,0)"/>
<path d="M0 0 C2 1 2 1 2 1 Z " fill="#C1BEF6" transform="translate(73,457)"/>
<path d="" fill="#C8C6F8" transform="translate(0,0)"/>
<path d="" fill="#C2BEF4" transform="translate(0,0)"/>
<path d="" fill="#C6C4F9" transform="translate(0,0)"/>
<path d="" fill="#C8C2FB" transform="translate(0,0)"/>
<path d="" fill="#C7C5F8" transform="translate(0,0)"/>
<path d="M0 0 C2 1 2 1 2 1 Z " fill="#C4C2F9" transform="translate(510,422)"/>
<path d="" fill="#C3BEF4" transform="translate(0,0)"/>
<path d="" fill="#C6C3F9" transform="translate(0,0)"/>
<path d="M0 0 C2 1 2 1 2 1 Z " fill="#C7E8E4" transform="translate(688,400)"/>
<path d="" fill="#C2BDF6" transform="translate(0,0)"/>
<path d="M0 0 C2 1 2 1 2 1 Z " fill="#C5E7E2" transform="translate(756,372)"/>
<path d="" fill="#CAC4FC" transform="translate(0,0)"/>
<path d="" fill="#C2BCF8" transform="translate(0,0)"/>
<path d="" fill="#C4BFF5" transform="translate(0,0)"/>
<path d="" fill="#B9B7F0" transform="translate(0,0)"/>
<path d="M0 0 C2 1 2 1 2 1 Z " fill="#C3BFF9" transform="translate(687,212)"/>
<path d="M0 0 C2 1 2 1 2 1 Z " fill="#C5BFF7" transform="translate(790,210)"/>
<path d="" fill="#C0BCF8" transform="translate(0,0)"/>
<path d="M0 0 C2 1 2 1 2 1 Z " fill="#C4BFFA" transform="translate(714,205)"/>
<path d="M0 0 C2 1 2 1 2 1 Z " fill="#C5C0FA" transform="translate(721,204)"/>
<path d="M0 0 C2 1 2 1 2 1 Z " fill="#C1BBF6" transform="translate(578,202)"/>
<path d="" fill="#BFBBF5" transform="translate(0,0)"/>
<path d="M0 0 C2 1 2 1 2 1 Z " fill="#BCB8F0" transform="translate(868,177)"/>
<path d="M0 0 C2 1 2 1 2 1 Z " fill="#B7B2EB" transform="translate(862,169)"/>
<path d="" fill="#B9B4ED" transform="translate(0,0)"/>
<path d="M0 0 C2 1 2 1 2 1 Z " fill="#BCB7F0" transform="translate(844,162)"/>
<path d="" fill="#BDBAF3" transform="translate(0,0)"/>
<path d="" fill="#BCB8F2" transform="translate(0,0)"/>
<path d="M0 0 C2 1 2 1 2 1 Z " fill="#BCB9F4" transform="translate(798,145)"/>
<path d="M0 0 C2 1 2 1 2 1 Z " fill="#BFBAF3" transform="translate(762,139)"/>
<path d="" fill="#BEB8F2" transform="translate(0,0)"/>
<path d="M0 0 C2 1 2 1 2 1 Z " fill="#BFB9F4" transform="translate(294,138)"/>
<path d="M0 0 C2 1 2 1 2 1 Z " fill="#BFBAF1" transform="translate(286,138)"/>
<path d="" fill="#B8B5EE" transform="translate(0,0)"/>
<path d="" fill="#BCBAF2" transform="translate(0,0)"/>
<path d="" fill="#C1BDF1" transform="translate(0,0)"/>
<path d="" fill="#C0BBF4" transform="translate(0,0)"/>
<path d="" fill="#BEBAF1" transform="translate(0,0)"/>
<path d="" fill="#C0BBF1" transform="translate(0,0)"/>
<path d="" fill="#BEB8F1" transform="translate(0,0)"/>
<path d="" fill="#BCB6F0" transform="translate(0,0)"/>
<path d="" fill="#BFB9F2" transform="translate(0,0)"/>
<path d="" fill="#BFBAF6" transform="translate(0,0)"/>
<path d="" fill="#C0BAF5" transform="translate(0,0)"/>
<path d="" fill="#C1BCF4" transform="translate(0,0)"/>
<path d="" fill="#BCB5F4" transform="translate(0,0)"/>
<path d="" fill="#BEB8F4" transform="translate(0,0)"/>
<path d="" fill="#C2BCF5" transform="translate(0,0)"/>
<path d="" fill="#BFBCF4" transform="translate(0,0)"/>
<path d="" fill="#BFB9F2" transform="translate(0,0)"/>
<path d="" fill="#BFB8F2" transform="translate(0,0)"/>
<path d="" fill="#BEB7F1" transform="translate(0,0)"/>
<path d="" fill="#BEBEF4" transform="translate(0,0)"/>
<path d="" fill="#BEB8F6" transform="translate(0,0)"/>
<path d="" fill="#C1BAF8" transform="translate(0,0)"/>
<path d="" fill="#C6C0F5" transform="translate(0,0)"/>
<path d="" fill="#C0B9F7" transform="translate(0,0)"/>
<path d="" fill="#C1BBF3" transform="translate(0,0)"/>
<path d="" fill="#000000" transform="translate(0,0)"/>
<path d="" fill="#C0B9F5" transform="translate(0,0)"/>
<path d="" fill="#BDB8F2" transform="translate(0,0)"/>
<path d="" fill="#BFBCF5" transform="translate(0,0)"/>
<path d="" fill="#BBB5F2" transform="translate(0,0)"/>
<path d="" fill="#BFB8F3" transform="translate(0,0)"/>
<path d="" fill="#C1BBF5" transform="translate(0,0)"/>
<path d="" fill="#C2BCF6" transform="translate(0,0)"/>
<path d="" fill="#BFB8F1" transform="translate(0,0)"/>
<path d="" fill="#BEBBF7" transform="translate(0,0)"/>
<path d="" fill="#BFB8F5" transform="translate(0,0)"/>
<path d="" fill="#BAB5EE" transform="translate(0,0)"/>
<path d="" fill="#CADFF0" transform="translate(0,0)"/>
<path d="" fill="#D1E3F0" transform="translate(0,0)"/>
<path d="" fill="#CFDAF5" transform="translate(0,0)"/>
<path d="" fill="#CEDEF0" transform="translate(0,0)"/>
<path d="" fill="#CCD3F7" transform="translate(0,0)"/>
<path d="" fill="#C1B8F4" transform="translate(0,0)"/>
<path d="" fill="#BFBAF2" transform="translate(0,0)"/>
<path d="" fill="#BEBBF5" transform="translate(0,0)"/>
<path d="" fill="#CDCFF9" transform="translate(0,0)"/>
<path d="" fill="#CFE7F0" transform="translate(0,0)"/>
<path d="" fill="#CCD8F8" transform="translate(0,0)"/>
<path d="" fill="#CCD4F8" transform="translate(0,0)"/>
<path d="" fill="#C1BCF3" transform="translate(0,0)"/>
<path d="" fill="#CCD4F6" transform="translate(0,0)"/>
<path d="" fill="#C3BBF6" transform="translate(0,0)"/>
<path d="" fill="#CCD5FA" transform="translate(0,0)"/>
<path d="" fill="#CCD3F5" transform="translate(0,0)"/>
<path d="" fill="#C0BAF6" transform="translate(0,0)"/>
<path d="" fill="#BDB7F2" transform="translate(0,0)"/>
<path d="" fill="#CDD4FA" transform="translate(0,0)"/>
<path d="" fill="#CDD1F6" transform="translate(0,0)"/>
<path d="" fill="#CBCFF9" transform="translate(0,0)"/>
<path d="" fill="#D0E7F0" transform="translate(0,0)"/>
<path d="" fill="#BDBAF4" transform="translate(0,0)"/>
<path d="" fill="#BDBBF3" transform="translate(0,0)"/>
<path d="" fill="#CCD2F7" transform="translate(0,0)"/>
<path d="" fill="#C9CAFA" transform="translate(0,0)"/>
<path d="" fill="#CECFFB" transform="translate(0,0)"/>
<path d="" fill="#C1BAF5" transform="translate(0,0)"/>
<path d="" fill="#CFE8EE" transform="translate(0,0)"/>
<path d="" fill="#CBD2FB" transform="translate(0,0)"/>
<path d="" fill="#CDCFFA" transform="translate(0,0)"/>
<path d="" fill="#C0BCF5" transform="translate(0,0)"/>
<path d="" fill="#CDC7FB" transform="translate(0,0)"/>
<path d="" fill="#C5BEF6" transform="translate(0,0)"/>
<path d="" fill="#CEEAEE" transform="translate(0,0)"/>
<path d="" fill="#CEE8EF" transform="translate(0,0)"/>
<path d="" fill="#CCCDFA" transform="translate(0,0)"/>
<path d="" fill="#CAD1F8" transform="translate(0,0)"/>
<path d="" fill="#CCCAFA" transform="translate(0,0)"/>
<path d="" fill="#C9CAF9" transform="translate(0,0)"/>
<path d="" fill="#CCCAF8" transform="translate(0,0)"/>
<path d="" fill="#BDBAF3" transform="translate(0,0)"/>
<path d="" fill="#CFCCF9" transform="translate(0,0)"/>
<path d="" fill="#C9C9FC" transform="translate(0,0)"/>
<path d="" fill="#D0EAEC" transform="translate(0,0)"/>
<path d="" fill="#CDEBEC" transform="translate(0,0)"/>
<path d="" fill="#BEBAF2" transform="translate(0,0)"/>
<path d="" fill="#CACDFA" transform="translate(0,0)"/>
<path d="" fill="#C8C8FC" transform="translate(0,0)"/>
<path d="" fill="#CAC8FB" transform="translate(0,0)"/>
<path d="" fill="#CCCDFD" transform="translate(0,0)"/>
<path d="" fill="#C7C2FA" transform="translate(0,0)"/>
<path d="" fill="#C0B8F3" transform="translate(0,0)"/>
<path d="" fill="#BBB9F2" transform="translate(0,0)"/>
<path d="" fill="#CECCFA" transform="translate(0,0)"/>
<path d="" fill="#C0BBF4" transform="translate(0,0)"/>
<path d="" fill="#C9C5FA" transform="translate(0,0)"/>
<path d="" fill="#BEB6F2" transform="translate(0,0)"/>
<path d="" fill="#CCCDFC" transform="translate(0,0)"/>
<path d="" fill="#BEB8F1" transform="translate(0,0)"/>
<path d="" fill="#BBB8F1" transform="translate(0,0)"/>
<path d="" fill="#CACBFC" transform="translate(0,0)"/>
<path d="" fill="#C5C5FB" transform="translate(0,0)"/>
<path d="" fill="#CBCCFA" transform="translate(0,0)"/>
<path d="" fill="#BDB8F0" transform="translate(0,0)"/>
<path d="" fill="#C9CDFD" transform="translate(0,0)"/>
<path d="" fill="#BFB8F2" transform="translate(0,0)"/>
<path d="" fill="#BDB9F1" transform="translate(0,0)"/>
<path d="" fill="#C9CCFB" transform="translate(0,0)"/>
<path d="" fill="#C6C5FC" transform="translate(0,0)"/>
<path d="" fill="#CBCCFB" transform="translate(0,0)"/>
<path d="" fill="#C2BDF6" transform="translate(0,0)"/>
<path d="" fill="#CDEAEE" transform="translate(0,0)"/>
<path d="" fill="#C1BCF6" transform="translate(0,0)"/>
<path d="" fill="#CDCCFA" transform="translate(0,0)"/>
<path d="" fill="#CBEAEB" transform="translate(0,0)"/>
<path d="" fill="#BFBAF7" transform="translate(0,0)"/>
<path d="" fill="#C9CDF7" transform="translate(0,0)"/>
<path d="" fill="#CFEAEE" transform="translate(0,0)"/>
<path d="" fill="#C0BAF2" transform="translate(0,0)"/>
<path d="" fill="#BDB9F4" transform="translate(0,0)"/>
<path d="" fill="#C6C5FB" transform="translate(0,0)"/>
<path d="" fill="#CACAFE" transform="translate(0,0)"/>
<path d="" fill="#CCCAFE" transform="translate(0,0)"/>
<path d="" fill="#BCB6F0" transform="translate(0,0)"/>
<path d="" fill="#BFBBF6" transform="translate(0,0)"/>
<path d="" fill="#BFBBF6" transform="translate(0,0)"/>
<path d="" fill="#C9C7FC" transform="translate(0,0)"/>
<path d="" fill="#C5C4FB" transform="translate(0,0)"/>
<path d="" fill="#BDBBF1" transform="translate(0,0)"/>
<path d="" fill="#BEBBF4" transform="translate(0,0)"/>
<path d="" fill="#CEEBEB" transform="translate(0,0)"/>
<path d="" fill="#BEBDF6" transform="translate(0,0)"/>
<path d="" fill="#CFEEEC" transform="translate(0,0)"/>
<path d="" fill="#CDEEEA" transform="translate(0,0)"/>
<path d="" fill="#BDBAF2" transform="translate(0,0)"/>
<path d="" fill="#CBCAFD" transform="translate(0,0)"/>
<path d="" fill="#CCEBEA" transform="translate(0,0)"/>
<path d="" fill="#C5C2FE" transform="translate(0,0)"/>
<path d="" fill="#CAC8FD" transform="translate(0,0)"/>
<path d="" fill="#BDB7F4" transform="translate(0,0)"/>
<path d="" fill="#CFCDFD" transform="translate(0,0)"/>
<path d="" fill="#CBEAEB" transform="translate(0,0)"/>
<path d="" fill="#CAC9FB" transform="translate(0,0)"/>
<path d="" fill="#CDEBEB" transform="translate(0,0)"/>
<path d="" fill="#C9C7FA" transform="translate(0,0)"/>
<path d="" fill="#BDBBF4" transform="translate(0,0)"/>
<path d="" fill="#C9C8F9" transform="translate(0,0)"/>
<path d="" fill="#C6C1FA" transform="translate(0,0)"/>
<path d="" fill="#CDCAF9" transform="translate(0,0)"/>
<path d="" fill="#C4C0F8" transform="translate(0,0)"/>
<path d="" fill="#CBEAEA" transform="translate(0,0)"/>
<path d="" fill="#CCEAEA" transform="translate(0,0)"/>
<path d="" fill="#BFB9F4" transform="translate(0,0)"/>
<path d="" fill="#C7C0F9" transform="translate(0,0)"/>
<path d="" fill="#CCC5FD" transform="translate(0,0)"/>
<path d="" fill="#CAC7FA" transform="translate(0,0)"/>
<path d="" fill="#CEEDE9" transform="translate(0,0)"/>
<path d="" fill="#BCB6F1" transform="translate(0,0)"/>
<path d="" fill="#C5BFF6" transform="translate(0,0)"/>
<path d="" fill="#BCB9F1" transform="translate(0,0)"/>
<path d="" fill="#C9CAFA" transform="translate(0,0)"/>
<path d="" fill="#C8CAFA" transform="translate(0,0)"/>
<path d="" fill="#CEEAEE" transform="translate(0,0)"/>
<path d="" fill="#C9C2FC" transform="translate(0,0)"/>
<path d="" fill="#C0BBF4" transform="translate(0,0)"/>
<path d="" fill="#CBC9FC" transform="translate(0,0)"/>
<path d="" fill="#CBECEA" transform="translate(0,0)"/>
<path d="" fill="#BCB6F1" transform="translate(0,0)"/>
<path d="" fill="#C8CAFB" transform="translate(0,0)"/>
<path d="" fill="#CDEBEA" transform="translate(0,0)"/>
<path d="" fill="#CAC6F9" transform="translate(0,0)"/>
<path d="" fill="#C7C7FB" transform="translate(0,0)"/>
<path d="" fill="#C8C3F9" transform="translate(0,0)"/>
<path d="" fill="#BDBBF2" transform="translate(0,0)"/>
<path d="" fill="#CBC9FA" transform="translate(0,0)"/>
<path d="" fill="#BDB9F1" transform="translate(0,0)"/>
<path d="" fill="#C7C3FC" transform="translate(0,0)"/>
<path d="" fill="#C7C5FA" transform="translate(0,0)"/>
<path d="" fill="#C1BAF2" transform="translate(0,0)"/>
<path d="" fill="#CDEAE9" transform="translate(0,0)"/>
<path d="" fill="#BAB7F0" transform="translate(0,0)"/>
<path d="" fill="#C0B8F4" transform="translate(0,0)"/>
<path d="" fill="#CFEBEC" transform="translate(0,0)"/>
<path d="" fill="#CAC5FA" transform="translate(0,0)"/>
<path d="" fill="#CBC9FA" transform="translate(0,0)"/>
<path d="" fill="#C2BEF8" transform="translate(0,0)"/>
<path d="" fill="#CDEEE7" transform="translate(0,0)"/>
<path d="" fill="#D0E2F4" transform="translate(0,0)"/>
<path d="" fill="#BFB8F5" transform="translate(0,0)"/>
<path d="" fill="#C9CAFA" transform="translate(0,0)"/>
<path d="" fill="#CCEAEB" transform="translate(0,0)"/>
<path d="" fill="#C5C0F7" transform="translate(0,0)"/>
<path d="" fill="#BEBAF4" transform="translate(0,0)"/>
<path d="" fill="#CAD5F6" transform="translate(0,0)"/>
<path d="" fill="#C6C3F8" transform="translate(0,0)"/>
<path d="" fill="#CDE4F3" transform="translate(0,0)"/>
<path d="" fill="#C4C5F8" transform="translate(0,0)"/>
<path d="" fill="#C3BEF7" transform="translate(0,0)"/>
<path d="" fill="#CAD1F8" transform="translate(0,0)"/>
<path d="" fill="#CCCBFB" transform="translate(0,0)"/>
<path d="" fill="#CFEFE8" transform="translate(0,0)"/>
<path d="" fill="#CDE6F1" transform="translate(0,0)"/>
<path d="" fill="#CBD6F5" transform="translate(0,0)"/>
<path d="" fill="#C0BCF2" transform="translate(0,0)"/>
<path d="" fill="#CFF1E8" transform="translate(0,0)"/>
<path d="" fill="#C0C0F6" transform="translate(0,0)"/>
<path d="" fill="#C8E6E3" transform="translate(0,0)"/>
<path d="" fill="#C8C9FB" transform="translate(0,0)"/>
<path d="" fill="#C4C1FB" transform="translate(0,0)"/>
<path d="" fill="#C4C0F9" transform="translate(0,0)"/>
<path d="" fill="#C9C9FA" transform="translate(0,0)"/>
<path d="" fill="#CEEBEA" transform="translate(0,0)"/>
<path d="" fill="#CBEFE9" transform="translate(0,0)"/>
<path d="" fill="#D1F2ED" transform="translate(0,0)"/>
<path d="" fill="#C9C6FA" transform="translate(0,0)"/>
<path d="" fill="#CAC8FB" transform="translate(0,0)"/>
<path d="" fill="#CEECEB" transform="translate(0,0)"/>
<path d="" fill="#CDEEEB" transform="translate(0,0)"/>
<path d="" fill="#CBD9F5" transform="translate(0,0)"/>
<path d="" fill="#CAC7FB" transform="translate(0,0)"/>
<path d="" fill="#CCD8F6" transform="translate(0,0)"/>
<path d="" fill="#CFF0E9" transform="translate(0,0)"/>
<path d="" fill="#C7BFFC" transform="translate(0,0)"/>
<path d="" fill="#BEB9F1" transform="translate(0,0)"/>
<path d="" fill="#CFF2EA" transform="translate(0,0)"/>
<path d="" fill="#CFEEEB" transform="translate(0,0)"/>
<path d="" fill="#C8C6FB" transform="translate(0,0)"/>
<path d="" fill="#CDEEE9" transform="translate(0,0)"/>
<path d="" fill="#C2BBF3" transform="translate(0,0)"/>
<path d="" fill="#C3BEF8" transform="translate(0,0)"/>
<path d="" fill="#BBB6F1" transform="translate(0,0)"/>
<path d="" fill="#BEBAF4" transform="translate(0,0)"/>
<path d="" fill="#C9C7F9" transform="translate(0,0)"/>
<path d="" fill="#D0F1E9" transform="translate(0,0)"/>
<path d="" fill="#C1BFF8" transform="translate(0,0)"/>
<path d="" fill="#BEB9F3" transform="translate(0,0)"/>
<path d="" fill="#BDBBF4" transform="translate(0,0)"/>
<path d="" fill="#CEEEEB" transform="translate(0,0)"/>
<path d="" fill="#CACCFC" transform="translate(0,0)"/>
<path d="" fill="#CEECEC" transform="translate(0,0)"/>
<path d="" fill="#D0ECEE" transform="translate(0,0)"/>
<path d="" fill="#CFE7F0" transform="translate(0,0)"/>
<path d="" fill="#CEEEEB" transform="translate(0,0)"/>
<path d="" fill="#C5C3F7" transform="translate(0,0)"/>
<path d="" fill="#C0B9F5" transform="translate(0,0)"/>
<path d="" fill="#C6C6F9" transform="translate(0,0)"/>
<path d="" fill="#C9C3F9" transform="translate(0,0)"/>
<path d="" fill="#C8C8F9" transform="translate(0,0)"/>
<path d="" fill="#D0F0E8" transform="translate(0,0)"/>
<path d="" fill="#C6C3F8" transform="translate(0,0)"/>
<path d="" fill="#CFF0EA" transform="translate(0,0)"/>
<path d="" fill="#CCE9E6" transform="translate(0,0)"/>
<path d="" fill="#CCF0E9" transform="translate(0,0)"/>
<path d="" fill="#C5C0F8" transform="translate(0,0)"/>
<path d="" fill="#C0BAF4" transform="translate(0,0)"/>
<path d="" fill="#C9C8FD" transform="translate(0,0)"/>
<path d="" fill="#C6C2F7" transform="translate(0,0)"/>
<path d="" fill="#D2F1EA" transform="translate(0,0)"/>
<path d="" fill="#C7BFF5" transform="translate(0,0)"/>
<path d="" fill="#C8C6FC" transform="translate(0,0)"/>
<path d="" fill="#C3BCF8" transform="translate(0,0)"/>
<path d="" fill="#CEF1EC" transform="translate(0,0)"/>
<path d="" fill="#CBCEF9" transform="translate(0,0)"/>
<path d="" fill="#C2BFF7" transform="translate(0,0)"/>
<path d="" fill="#CFF0EB" transform="translate(0,0)"/>
<path d="" fill="#C1C0FB" transform="translate(0,0)"/>
<path d="" fill="#C7C4FD" transform="translate(0,0)"/>
<path d="" fill="#CBCDF7" transform="translate(0,0)"/>
<path d="" fill="#C0BCF3" transform="translate(0,0)"/>
<path d="" fill="#CEEFED" transform="translate(0,0)"/>
<path d="" fill="#C0BAF3" transform="translate(0,0)"/>
<path d="" fill="#CCEAE8" transform="translate(0,0)"/>
<path d="" fill="#CBCDFC" transform="translate(0,0)"/>
<path d="" fill="#C4C2F8" transform="translate(0,0)"/>
<path d="" fill="#BCB7EF" transform="translate(0,0)"/>
<path d="" fill="#CEEFEA" transform="translate(0,0)"/>
<path d="" fill="#CDEFE9" transform="translate(0,0)"/>
<path d="" fill="#BFBBF6" transform="translate(0,0)"/>
<path d="" fill="#CEEFEB" transform="translate(0,0)"/>
<path d="" fill="#CDEAEA" transform="translate(0,0)"/>
<path d="" fill="#C6C4F9" transform="translate(0,0)"/>
<path d="" fill="#C9C7FC" transform="translate(0,0)"/>
<path d="" fill="#C4C0F8" transform="translate(0,0)"/>
<path d="" fill="#BEB9F2" transform="translate(0,0)"/>
<path d="" fill="#CDEAEC" transform="translate(0,0)"/>
<path d="" fill="#CDF4EA" transform="translate(0,0)"/>
<path d="" fill="#CFEDEC" transform="translate(0,0)"/>
<path d="" fill="#BDB9F4" transform="translate(0,0)"/>
<path d="" fill="#C3BFF8" transform="translate(0,0)"/>
<path d="" fill="#C3C0F8" transform="translate(0,0)"/>
<path d="" fill="#C5C9F9" transform="translate(0,0)"/>
<path d="" fill="#C7C4FA" transform="translate(0,0)"/>
<path d="" fill="#C3C0F6" transform="translate(0,0)"/>
<path d="" fill="#C7C6F9" transform="translate(0,0)"/>
<path d="" fill="#C4BEF9" transform="translate(0,0)"/>
<path d="" fill="#CAC4F7" transform="translate(0,0)"/>
<path d="" fill="#D1EFED" transform="translate(0,0)"/>
<path d="" fill="#CFF1EA" transform="translate(0,0)"/>
<path d="" fill="#CAD0F9" transform="translate(0,0)"/>
<path d="" fill="#C3C0F6" transform="translate(0,0)"/>
<path d="" fill="#C2BEF8" transform="translate(0,0)"/>
<path d="" fill="#CDE7E4" transform="translate(0,0)"/>
<path d="" fill="#BDBAF2" transform="translate(0,0)"/>
<path d="" fill="#C3BCF5" transform="translate(0,0)"/>
<path d="" fill="#C0B9F2" transform="translate(0,0)"/>
<path d="" fill="#BEBBF0" transform="translate(0,0)"/>
<path d="" fill="#CDF0E9" transform="translate(0,0)"/>
<path d="" fill="#D0F0EC" transform="translate(0,0)"/>
<path d="" fill="#C4C0F8" transform="translate(0,0)"/>
<path d="" fill="#CCE9E8" transform="translate(0,0)"/>
<path d="" fill="#CAEAE7" transform="translate(0,0)"/>
<path d="" fill="#C3C2F6" transform="translate(0,0)"/>
<path d="" fill="#CBEBE9" transform="translate(0,0)"/>
<path d="" fill="#CAC6FB" transform="translate(0,0)"/>
<path d="" fill="#CFEEEC" transform="translate(0,0)"/>
<path d="" fill="#BFB9F2" transform="translate(0,0)"/>
<path d="" fill="#D0EDEC" transform="translate(0,0)"/>
<path d="" fill="#C9C5FB" transform="translate(0,0)"/>
<path d="" fill="#BFBAF3" transform="translate(0,0)"/>
<path d="" fill="#CDEAEB" transform="translate(0,0)"/>
<path d="" fill="#CBEDE9" transform="translate(0,0)"/>
<path d="" fill="#CCEDEA" transform="translate(0,0)"/>
<path d="" fill="#C3C0F3" transform="translate(0,0)"/>
<path d="" fill="#C0BEF2" transform="translate(0,0)"/>
<path d="" fill="#C9C4FB" transform="translate(0,0)"/>
<path d="" fill="#CCECE8" transform="translate(0,0)"/>
<path d="" fill="#CCEEEB" transform="translate(0,0)"/>
<path d="" fill="#C0BCF5" transform="translate(0,0)"/>
<path d="" fill="#C2BCF4" transform="translate(0,0)"/>
<path d="" fill="#CFF2EB" transform="translate(0,0)"/>
<path d="" fill="#C2BCF4" transform="translate(0,0)"/>
<path d="" fill="#C9C7FB" transform="translate(0,0)"/>
<path d="" fill="#BEBAF2" transform="translate(0,0)"/>
<path d="" fill="#CAE9E7" transform="translate(0,0)"/>
<path d="" fill="#C4BFF6" transform="translate(0,0)"/>
<path d="" fill="#C2BCF6" transform="translate(0,0)"/>
<path d="" fill="#CBE8E8" transform="translate(0,0)"/>
<path d="" fill="#CCEDE4" transform="translate(0,0)"/>
<path d="" fill="#C1BDF3" transform="translate(0,0)"/>
<path d="" fill="#CBECE7" transform="translate(0,0)"/>
<path d="" fill="#CBC7FB" transform="translate(0,0)"/>
<path d="" fill="#CDEFE9" transform="translate(0,0)"/>
<path d="" fill="#C2BEF4" transform="translate(0,0)"/>
<path d="" fill="#C1BCF6" transform="translate(0,0)"/>
<path d="" fill="#CCEDE8" transform="translate(0,0)"/>
<path d="" fill="#C9C3FA" transform="translate(0,0)"/>
<path d="" fill="#C2BFF5" transform="translate(0,0)"/>
<path d="" fill="#C6C2FB" transform="translate(0,0)"/>
<path d="" fill="#CDCCFA" transform="translate(0,0)"/>
<path d="" fill="#CEEFEA" transform="translate(0,0)"/>
<path d="" fill="#C2BCF6" transform="translate(0,0)"/>
<path d="" fill="#CDEFE8" transform="translate(0,0)"/>
<path d="" fill="#C1BCF6" transform="translate(0,0)"/>
<path d="" fill="#CFF1EA" transform="translate(0,0)"/>
<path d="" fill="#C0B9F5" transform="translate(0,0)"/>
<path d="" fill="#CAC7FC" transform="translate(0,0)"/>
<path d="" fill="#CEEDEA" transform="translate(0,0)"/>
<path d="" fill="#CEF0EA" transform="translate(0,0)"/>
<path d="" fill="#C0BCF7" transform="translate(0,0)"/>
<path d="" fill="#CFEDEA" transform="translate(0,0)"/>
<path d="" fill="#C7C2FA" transform="translate(0,0)"/>
<path d="" fill="#CCEEEB" transform="translate(0,0)"/>
<path d="" fill="#C9C3FA" transform="translate(0,0)"/>
<path d="" fill="#C1BDF5" transform="translate(0,0)"/>
<path d="" fill="#CAEAE9" transform="translate(0,0)"/>
<path d="" fill="#C0BEF7" transform="translate(0,0)"/>
<path d="" fill="#CCEFEA" transform="translate(0,0)"/>
<path d="" fill="#C7C3F8" transform="translate(0,0)"/>
<path d="" fill="#C9CAF8" transform="translate(0,0)"/>
<path d="" fill="#C4C0FA" transform="translate(0,0)"/>
<path d="" fill="#C9C8F7" transform="translate(0,0)"/>
<path d="" fill="#C1BCF5" transform="translate(0,0)"/>
<path d="" fill="#C7C1F9" transform="translate(0,0)"/>
<path d="" fill="#C8C8FB" transform="translate(0,0)"/>
<path d="" fill="#C7C2F9" transform="translate(0,0)"/>
<path d="" fill="#C7C5FA" transform="translate(0,0)"/>
<path d="" fill="#C7C5F8" transform="translate(0,0)"/>
<path d="" fill="#C3BFF5" transform="translate(0,0)"/>
<path d="" fill="#C5C5FA" transform="translate(0,0)"/>
<path d="" fill="#C9C2FA" transform="translate(0,0)"/>
<path d="" fill="#CDEFE9" transform="translate(0,0)"/>
<path d="" fill="#C5C0F5" transform="translate(0,0)"/>
<path d="" fill="#CBE9E8" transform="translate(0,0)"/>
<path d="" fill="#C9C9F9" transform="translate(0,0)"/>
<path d="" fill="#C1BBF6" transform="translate(0,0)"/>
<path d="" fill="#C6C2FC" transform="translate(0,0)"/>
<path d="" fill="#C2BCF6" transform="translate(0,0)"/>
<path d="" fill="#CBEDE8" transform="translate(0,0)"/>
<path d="" fill="#CCECE9" transform="translate(0,0)"/>
<path d="" fill="#C5C1FC" transform="translate(0,0)"/>
<path d="" fill="#C7C1FA" transform="translate(0,0)"/>
<path d="" fill="#C6C6F9" transform="translate(0,0)"/>
<path d="" fill="#CAC2FB" transform="translate(0,0)"/>
<path d="" fill="#CCEDE8" transform="translate(0,0)"/>
<path d="" fill="#C2BDF6" transform="translate(0,0)"/>
<path d="" fill="#C7C6FB" transform="translate(0,0)"/>
<path d="" fill="#C4BFFA" transform="translate(0,0)"/>
<path d="" fill="#C9C5FC" transform="translate(0,0)"/>
<path d="" fill="#C6C3F9" transform="translate(0,0)"/>
<path d="" fill="#C6C4FA" transform="translate(0,0)"/>
<path d="" fill="#CAEDEA" transform="translate(0,0)"/>
<path d="" fill="#CCECEA" transform="translate(0,0)"/>
<path d="" fill="#CFECE8" transform="translate(0,0)"/>
<path d="" fill="#C1BEF3" transform="translate(0,0)"/>
<path d="" fill="#CBF1E9" transform="translate(0,0)"/>
<path d="" fill="#CCEDE9" transform="translate(0,0)"/>
<path d="" fill="#C3BEF8" transform="translate(0,0)"/>
<path d="" fill="#C6C6F9" transform="translate(0,0)"/>
<path d="" fill="#C2BFF9" transform="translate(0,0)"/>
<path d="" fill="#CAEBE7" transform="translate(0,0)"/>
<path d="" fill="#C4BFF5" transform="translate(0,0)"/>
<path d="" fill="#C3BCF4" transform="translate(0,0)"/>
<path d="" fill="#CAEDE7" transform="translate(0,0)"/>
<path d="" fill="#C1BCF9" transform="translate(0,0)"/>
<path d="" fill="#BFBDF2" transform="translate(0,0)"/>
<path d="" fill="#C5C1FA" transform="translate(0,0)"/>
<path d="" fill="#C8C3F9" transform="translate(0,0)"/>
<path d="" fill="#C3BDF5" transform="translate(0,0)"/>
<path d="" fill="#C4C1F9" transform="translate(0,0)"/>
<path d="" fill="#C2BEF5" transform="translate(0,0)"/>
<path d="" fill="#C1BBF3" transform="translate(0,0)"/>
<path d="" fill="#C6C7F9" transform="translate(0,0)"/>
<path d="" fill="#C2BDF3" transform="translate(0,0)"/>
<path d="" fill="#C5BFFA" transform="translate(0,0)"/>
<path d="" fill="#C7C3FB" transform="translate(0,0)"/>
<path d="" fill="#C2BCF9" transform="translate(0,0)"/>
<path d="" fill="#C7C5F9" transform="translate(0,0)"/>
<path d="" fill="#C1BDF7" transform="translate(0,0)"/>
<path d="" fill="#C8C3FA" transform="translate(0,0)"/>
<path d="" fill="#C9EEE7" transform="translate(0,0)"/>
<path d="" fill="#C4BFF6" transform="translate(0,0)"/>
<path d="" fill="#C8E8E4" transform="translate(0,0)"/>
<path d="" fill="#C3BAF6" transform="translate(0,0)"/>
<path d="" fill="#C0BDF7" transform="translate(0,0)"/>
<path d="" fill="#C8E9E5" transform="translate(0,0)"/>
<path d="" fill="#C6BFF5" transform="translate(0,0)"/>
<path d="" fill="#C8EBE5" transform="translate(0,0)"/>
<path d="" fill="#C7C3F9" transform="translate(0,0)"/>
<path d="" fill="#C7EAE4" transform="translate(0,0)"/>
<path d="" fill="#C3BFF6" transform="translate(0,0)"/>
<path d="" fill="#C7EAE2" transform="translate(0,0)"/>
<path d="" fill="#C2BEF7" transform="translate(0,0)"/>
<path d="" fill="#C2BDF7" transform="translate(0,0)"/>
<path d="" fill="#C5C4FA" transform="translate(0,0)"/>
<path d="" fill="#C4C1F5" transform="translate(0,0)"/>
<path d="" fill="#C4C0FA" transform="translate(0,0)"/>
<path d="" fill="#C7C1F9" transform="translate(0,0)"/>
<path d="" fill="#C3E6E1" transform="translate(0,0)"/>
<path d="" fill="#C1E4DE" transform="translate(0,0)"/>
<path d="" fill="#C4C1F8" transform="translate(0,0)"/>
<path d="" fill="#C4C3F9" transform="translate(0,0)"/>
<path d="" fill="#C3BFF9" transform="translate(0,0)"/>
<path d="" fill="#C7C4FC" transform="translate(0,0)"/>
<path d="" fill="#C6C2FC" transform="translate(0,0)"/>
<path d="" fill="#C6C2FA" transform="translate(0,0)"/>
<path d="" fill="#C7C5F9" transform="translate(0,0)"/>
<path d="" fill="#C5BFF8" transform="translate(0,0)"/>
<path d="" fill="#C6C3FB" transform="translate(0,0)"/>
<path d="" fill="#C2BBF8" transform="translate(0,0)"/>
<path d="" fill="#C7C3FB" transform="translate(0,0)"/>
<path d="" fill="#C3C2F8" transform="translate(0,0)"/>
<path d="" fill="#C3BCF8" transform="translate(0,0)"/>
<path d="" fill="#C3BBF5" transform="translate(0,0)"/>
<path d="" fill="#C5C3F8" transform="translate(0,0)"/>
<path d="" fill="#C5C1FB" transform="translate(0,0)"/>
<path d="" fill="#C1BEF9" transform="translate(0,0)"/>
<path d="" fill="#C4C0FA" transform="translate(0,0)"/>
<path d="" fill="#C7C2FA" transform="translate(0,0)"/>
<path d="" fill="#C9BFFB" transform="translate(0,0)"/>
<path d="" fill="#C6C3F8" transform="translate(0,0)"/>
<path d="" fill="#C1BAF7" transform="translate(0,0)"/>
<path d="" fill="#C5C3F8" transform="translate(0,0)"/>
<path d="" fill="#C2BDF7" transform="translate(0,0)"/>
<path d="" fill="#C6C0F8" transform="translate(0,0)"/>
<path d="" fill="#C3BDF4" transform="translate(0,0)"/>
<path d="" fill="#C6C0F7" transform="translate(0,0)"/>
<path d="" fill="#C4BFF8" transform="translate(0,0)"/>
<path d="" fill="#C3BFF8" transform="translate(0,0)"/>
<path d="" fill="#C5BFFB" transform="translate(0,0)"/>
<path d="" fill="#C3BFF9" transform="translate(0,0)"/>
<path d="" fill="#C1BBF7" transform="translate(0,0)"/>
<path d="" fill="#C1BDF8" transform="translate(0,0)"/>
<path d="" fill="#C2BCF6" transform="translate(0,0)"/>
<path d="" fill="#C0BAF6" transform="translate(0,0)"/>
<path d="" fill="#C7C0F8" transform="translate(0,0)"/>
<path d="" fill="#C4C0FA" transform="translate(0,0)"/>
<path d="" fill="#C4BDF7" transform="translate(0,0)"/>
<path d="" fill="#C3BEF9" transform="translate(0,0)"/>
<path d="" fill="#C3BFF9" transform="translate(0,0)"/>
<path d="" fill="#BFBBF7" transform="translate(0,0)"/>
<path d="" fill="#C1C1F8" transform="translate(0,0)"/>
<path d="" fill="#C4BFFB" transform="translate(0,0)"/>
<path d="" fill="#C3BCF6" transform="translate(0,0)"/>
<path d="" fill="#C4BEF8" transform="translate(0,0)"/>
<path d="" fill="#C3BAF5" transform="translate(0,0)"/>
<path d="" fill="#BEB9F3" transform="translate(0,0)"/>
<path d="" fill="#C3C0FB" transform="translate(0,0)"/>
<path d="" fill="#C4BEF9" transform="translate(0,0)"/>
<path d="" fill="#BEBAF1" transform="translate(0,0)"/>
<path d="" fill="#C4BDFB" transform="translate(0,0)"/>
<path d="" fill="#C8C4FC" transform="translate(0,0)"/>
<path d="" fill="#C1BBF6" transform="translate(0,0)"/>
<path d="" fill="#C5C2FC" transform="translate(0,0)"/>
<path d="" fill="#C6C2FD" transform="translate(0,0)"/>
<path d="" fill="#C2BDF7" transform="translate(0,0)"/>
<path d="" fill="#C1BBF7" transform="translate(0,0)"/>
<path d="" fill="#BFB9F5" transform="translate(0,0)"/>
<path d="" fill="#C2BEFA" transform="translate(0,0)"/>
<path d="" fill="#C3BFF9" transform="translate(0,0)"/>
<path d="" fill="#C2C0FA" transform="translate(0,0)"/>
<path d="" fill="#C2BDF6" transform="translate(0,0)"/>
<path d="" fill="#C5C0FA" transform="translate(0,0)"/>
<path d="" fill="#C6C0F9" transform="translate(0,0)"/>
<path d="" fill="#C3BDF3" transform="translate(0,0)"/>
<path d="" fill="#C2BCF7" transform="translate(0,0)"/>
<path d="" fill="#C4C2FA" transform="translate(0,0)"/>
<path d="" fill="#C2BEFB" transform="translate(0,0)"/>
<path d="" fill="#C6C2F9" transform="translate(0,0)"/>
<path d="" fill="#C2C0FB" transform="translate(0,0)"/>
<path d="" fill="#C4BFFA" transform="translate(0,0)"/>
<path d="" fill="#BFBCF8" transform="translate(0,0)"/>
<path d="" fill="#C6C0FA" transform="translate(0,0)"/>
<path d="" fill="#BFB8F6" transform="translate(0,0)"/>
<path d="" fill="#C5C2F7" transform="translate(0,0)"/>
<path d="" fill="#C2BFFB" transform="translate(0,0)"/>
<path d="" fill="#C3BEF9" transform="translate(0,0)"/>
<path d="" fill="#C1BCF8" transform="translate(0,0)"/>
<path d="" fill="#C5BEF9" transform="translate(0,0)"/>
<path d="" fill="#C6C3F9" transform="translate(0,0)"/>
<path d="" fill="#C0B9F2" transform="translate(0,0)"/>
<path d="" fill="#C4BFF8" transform="translate(0,0)"/>
<path d="" fill="#C4BEF6" transform="translate(0,0)"/>
<path d="" fill="#C4C0F9" transform="translate(0,0)"/>
<path d="" fill="#C5C1FB" transform="translate(0,0)"/>
<path d="" fill="#BCB9ED" transform="translate(0,0)"/>
<path d="" fill="#C1BEF7" transform="translate(0,0)"/>
<path d="" fill="#C4BCF9" transform="translate(0,0)"/>
<path d="" fill="#C5C0FA" transform="translate(0,0)"/>
<path d="" fill="#C6BEF9" transform="translate(0,0)"/>
<path d="" fill="#C2BEF6" transform="translate(0,0)"/>
<path d="" fill="#C7C1F9" transform="translate(0,0)"/>
<path d="" fill="#B9B4EC" transform="translate(0,0)"/>
<path d="" fill="#BCBAF2" transform="translate(0,0)"/>
<path d="" fill="#C5C1FA" transform="translate(0,0)"/>
<path d="" fill="#C3BCF8" transform="translate(0,0)"/>
<path d="" fill="#C0BCF9" transform="translate(0,0)"/>
<path d="" fill="#BDB9F0" transform="translate(0,0)"/>
<path d="" fill="#C6C0FC" transform="translate(0,0)"/>
<path d="" fill="#C4C1FA" transform="translate(0,0)"/>
<path d="" fill="#C1BCFA" transform="translate(0,0)"/>
<path d="" fill="#BAB8F0" transform="translate(0,0)"/>
<path d="" fill="#BDB7EE" transform="translate(0,0)"/>
<path d="" fill="#C4C0F8" transform="translate(0,0)"/>
<path d="" fill="#C4BEF8" transform="translate(0,0)"/>
<path d="" fill="#C1BDF7" transform="translate(0,0)"/>
<path d="" fill="#C2BBF8" transform="translate(0,0)"/>
<path d="" fill="#C2BDF6" transform="translate(0,0)"/>
<path d="" fill="#C1BCF8" transform="translate(0,0)"/>
<path d="" fill="#C0BDF8" transform="translate(0,0)"/>
<path d="" fill="#C4C0F8" transform="translate(0,0)"/>
<path d="" fill="#C2BDFA" transform="translate(0,0)"/>
<path d="" fill="#BFBEFA" transform="translate(0,0)"/>
<path d="" fill="#C4C0FB" transform="translate(0,0)"/>
<path d="" fill="#C3BBF8" transform="translate(0,0)"/>
<path d="" fill="#C1BEF9" transform="translate(0,0)"/>
<path d="" fill="#C1BCF5" transform="translate(0,0)"/>
<path d="" fill="#C4C0FC" transform="translate(0,0)"/>
<path d="" fill="#C3BDFA" transform="translate(0,0)"/>
<path d="" fill="#C1BCF9" transform="translate(0,0)"/>
<path d="" fill="#C2BFF9" transform="translate(0,0)"/>
<path d="" fill="#BBB7F0" transform="translate(0,0)"/>
<path d="" fill="#C3BEF8" transform="translate(0,0)"/>
<path d="" fill="#C3BDF7" transform="translate(0,0)"/>
<path d="" fill="#C5C0FA" transform="translate(0,0)"/>
<path d="" fill="#C0BDF6" transform="translate(0,0)"/>
<path d="" fill="#BCB9F0" transform="translate(0,0)"/>
<path d="" fill="#C4C1FA" transform="translate(0,0)"/>
<path d="" fill="#C6C0FD" transform="translate(0,0)"/>
<path d="" fill="#C2BEF8" transform="translate(0,0)"/>
<path d="" fill="#C2BDF6" transform="translate(0,0)"/>
<path d="" fill="#C1BCF7" transform="translate(0,0)"/>
<path d="" fill="#C2BDF7" transform="translate(0,0)"/>
<path d="" fill="#C2BEF8" transform="translate(0,0)"/>
<path d="" fill="#C3BFF9" transform="translate(0,0)"/>
<path d="" fill="#C4BDF9" transform="translate(0,0)"/>
<path d="" fill="#C5BEF9" transform="translate(0,0)"/>
<path d="" fill="#BEB7F1" transform="translate(0,0)"/>
<path d="" fill="#C7C1FA" transform="translate(0,0)"/>
<path d="" fill="#C2BEF7" transform="translate(0,0)"/>
<path d="" fill="#C3BDF9" transform="translate(0,0)"/>
<path d="" fill="#C2BDF9" transform="translate(0,0)"/>
<path d="" fill="#C5C0F9" transform="translate(0,0)"/>
<path d="" fill="#C4C0FA" transform="translate(0,0)"/>
<path d="" fill="#C6C1F7" transform="translate(0,0)"/>
<path d="" fill="#C3C0F9" transform="translate(0,0)"/>
<path d="" fill="#C2BDF9" transform="translate(0,0)"/>
<path d="" fill="#C3BCF8" transform="translate(0,0)"/>
<path d="" fill="#C3BCF8" transform="translate(0,0)"/>
<path d="" fill="#C3BEF8" transform="translate(0,0)"/>
<path d="" fill="#C3BFFA" transform="translate(0,0)"/>
<path d="" fill="#C6C3F9" transform="translate(0,0)"/>
<path d="" fill="#C0BCF7" transform="translate(0,0)"/>
<path d="" fill="#BFB8F4" transform="translate(0,0)"/>
<path d="" fill="#BBB9EF" transform="translate(0,0)"/>
<path d="" fill="#C1BCF6" transform="translate(0,0)"/>
<path d="" fill="#BFB8F2" transform="translate(0,0)"/>
<path d="" fill="#B7B3EA" transform="translate(0,0)"/>
<path d="" fill="#BFBCF5" transform="translate(0,0)"/>
<path d="" fill="#BEBCF4" transform="translate(0,0)"/>
<path d="" fill="#C3BAF5" transform="translate(0,0)"/>
<path d="" fill="#BDB6F0" transform="translate(0,0)"/>
<path d="" fill="#BCB6EE" transform="translate(0,0)"/>
<path d="" fill="#BFB9F4" transform="translate(0,0)"/>
<path d="" fill="#BBB4EE" transform="translate(0,0)"/>
<path d="" fill="#BDB4EF" transform="translate(0,0)"/>
<path d="" fill="#BAB6F0" transform="translate(0,0)"/>
<path d="" fill="#BFB8F3" transform="translate(0,0)"/>
<path d="" fill="#BDB9EF" transform="translate(0,0)"/>
<path d="" fill="#BEBAF4" transform="translate(0,0)"/>
<path d="" fill="#BDB6F0" transform="translate(0,0)"/>
<path d="" fill="#B8B5EE" transform="translate(0,0)"/>
<path d="" fill="#BBB6F0" transform="translate(0,0)"/>
<path d="" fill="#C2B9F6" transform="translate(0,0)"/>
<path d="" fill="#BAB8F0" transform="translate(0,0)"/>
<path d="" fill="#C0BCF4" transform="translate(0,0)"/>
<path d="" fill="#BFBAF4" transform="translate(0,0)"/>
<path d="" fill="#BDB9F1" transform="translate(0,0)"/>
<path d="" fill="#BFBBF6" transform="translate(0,0)"/>
<path d="" fill="#BDB5F2" transform="translate(0,0)"/>
<path d="" fill="#C1BAF6" transform="translate(0,0)"/>
<path d="" fill="#BEB6EF" transform="translate(0,0)"/>
<path d="" fill="#BFBCF3" transform="translate(0,0)"/>
<path d="" fill="#BBBAF1" transform="translate(0,0)"/>
<path d="" fill="#BEBDF2" transform="translate(0,0)"/>
<path d="" fill="#C0BAF5" transform="translate(0,0)"/>
<path d="" fill="#BFBBF4" transform="translate(0,0)"/>
<path d="" fill="#C1B8F5" transform="translate(0,0)"/>
<path d="" fill="#BFB9F5" transform="translate(0,0)"/>
<path d="" fill="#C0BEF3" transform="translate(0,0)"/>
<path d="" fill="#BEBBF2" transform="translate(0,0)"/>
<path d="" fill="#C0BBF2" transform="translate(0,0)"/>
<path d="" fill="#C0B8F3" transform="translate(0,0)"/>
<path d="" fill="#C1BBF4" transform="translate(0,0)"/>
<path d="" fill="#BFBCF4" transform="translate(0,0)"/>
<path d="" fill="#C1BEF8" transform="translate(0,0)"/>
<path d="" fill="#C1BAF3" transform="translate(0,0)"/>
<path d="" fill="#C2BBF4" transform="translate(0,0)"/>
<path d="" fill="#BEBBF3" transform="translate(0,0)"/>
<path d="" fill="#C0BDF6" transform="translate(0,0)"/>
<path d="" fill="#BBB7F1" transform="translate(0,0)"/>
<path d="" fill="#BFB8F1" transform="translate(0,0)"/>
<path d="" fill="#535167" transform="translate(0,0)"/>
</svg>
